<svg width="18" height="17" viewBox="0 0 18 17" fill="none" xmlns="http://www.w3.org/2000/svg">
<path d="M16.0013 12.9838C16.0013 13.2388 15.9448 13.5008 15.8249 13.7558C15.705 14.0108 15.5497 14.2517 15.3451 14.4783C14.9994 14.8608 14.6184 15.1371 14.188 15.3142C13.7646 15.4913 13.306 15.5833 12.8121 15.5833C12.0925 15.5833 11.3234 15.4133 10.512 15.0663C9.70059 14.7192 8.88918 14.2517 8.08484 13.6638C7.27344 13.0688 6.50437 12.41 5.77058 11.6804C5.04385 10.9438 4.38767 10.1717 3.80205 9.36417C3.22349 8.55667 2.75781 7.74917 2.41914 6.94876C2.08047 6.14126 1.91113 5.36917 1.91113 4.6325C1.91113 4.15084 1.9958 3.69042 2.16514 3.26542C2.33447 2.83334 2.60259 2.43667 2.97654 2.08251C3.4281 1.63626 3.922 1.41667 4.44412 1.41667C4.64167 1.41667 4.83923 1.45917 5.01563 1.54417C5.19907 1.62917 5.36135 1.75667 5.48835 1.94084L7.12527 4.25709C7.25227 4.43417 7.34399 4.59709 7.4075 4.75292C7.471 4.90167 7.50627 5.05042 7.50627 5.18501C7.50627 5.35501 7.45688 5.525 7.35811 5.68792C7.26638 5.85084 7.13232 6.02084 6.96299 6.19084L6.42676 6.75042C6.34915 6.82834 6.31387 6.92042 6.31387 7.03376C6.31387 7.09042 6.32092 7.14 6.33503 7.19667C6.3562 7.25334 6.37737 7.29584 6.39148 7.33834C6.51848 7.57209 6.73721 7.87667 7.04766 8.24501C7.36516 8.61334 7.70383 8.98876 8.07073 9.36417C8.45173 9.73959 8.81863 10.0867 9.19258 10.4054C9.55947 10.7171 9.86287 10.9296 10.1028 11.0571C10.138 11.0713 10.1804 11.0925 10.2298 11.1138C10.2862 11.135 10.3427 11.1421 10.4062 11.1421C10.5261 11.1421 10.6178 11.0996 10.6954 11.0217L11.2317 10.4904C11.4081 10.3133 11.5774 10.1788 11.7397 10.0938C11.902 9.99459 12.0642 9.945 12.2406 9.945C12.3747 9.945 12.5158 9.97334 12.671 10.0371C12.8262 10.1008 12.9885 10.1929 13.1649 10.3133L15.5003 11.9779C15.6838 12.1054 15.8108 12.2542 15.8884 12.4313C15.959 12.6083 16.0013 12.7854 16.0013 12.9838Z" stroke="#4AB2BF" stroke-miterlimit="10"/>
</svg>
